<svg width="32" height="32" viewBox="0 0 32 32" xmlns="http://www.w3.org/2000/svg">
  <!-- Cheese wedge main body -->
  <path d="M 4 28 L 28 28 L 28 12 Q 26 8 22 6 Q 18 4 14 6 Q 10 8 8 12 L 4 28 Z" 
        fill="#FFD700" stroke="#DAA520" stroke-width="1.5"/>
  
  <!-- Cheese holes -->
  <ellipse cx="12" cy="20" rx="2" ry="1.5" fill="#FFA500"/>
  <ellipse cx="20" cy="16" rx="1.5" ry="1.2" fill="#FFA500"/>
  <ellipse cx="16" cy="23" rx="1.8" ry="1.3" fill="#FFA500"/>
  <ellipse cx="22" cy="22" rx="1.2" ry="1" fill="#FFA500"/>
  <ellipse cx="9" cy="16" rx="1" ry="0.8" fill="#FFA500"/>
  
  <!-- Smaller holes for detail -->
  <circle cx="18" cy="18" r="0.8" fill="#FFA500"/>
  <circle cx="14" cy="15" r="0.6" fill="#FFA500"/>
  <circle cx="24" cy="18" r="0.7" fill="#FFA500"/>
  
  <!-- Highlight on top edge -->
  <path d="M 8 12 Q 10 8 14 6 Q 18 4 22 6 Q 26 8 28 12" 
        stroke="#FFFF99" stroke-width="1" fill="none" opacity="0.7"/>
  
  <!-- Shadow on bottom -->
  <path d="M 4 28 L 28 28" stroke="#B8860B" stroke-width="2" opacity="0.5"/>
</svg>