<svg width="32" height="32" viewBox="0 0 32 32" xmlns="http://www.w3.org/2000/svg">
  <!-- Mouse body -->
  <ellipse cx="16" cy="18" rx="10" ry="8" fill="#8B4513" stroke="#654321" stroke-width="1"/>
  
  <!-- Mouse head -->
  <ellipse cx="16" cy="10" rx="6" ry="5" fill="#CD853F" stroke="#8B4513" stroke-width="1"/>
  
  <!-- Nose -->
  <ellipse cx="16" cy="6" rx="1.5" ry="1" fill="#FFB6C1" stroke="#8B4513" stroke-width="0.5"/>
  
  <!-- Eyes -->
  <circle cx="13" cy="9" r="1.5" fill="#000"/>
  <circle cx="19" cy="9" r="1.5" fill="#000"/>
  <circle cx="13.5" cy="8.5" r="0.5" fill="#FFF"/>
  <circle cx="19.5" cy="8.5" r="0.5" fill="#FFF"/>
  
  <!-- Ears -->
  <ellipse cx="11" cy="7" rx="2" ry="3" fill="#8B4513" stroke="#654321" stroke-width="0.5"/>
  <ellipse cx="21" cy="7" rx="2" ry="3" fill="#8B4513" stroke="#654321" stroke-width="0.5"/>
  <ellipse cx="11" cy="7" rx="1" ry="1.5" fill="#FFB6C1"/>
  <ellipse cx="21" cy="7" rx="1" ry="1.5" fill="#FFB6C1"/>
  
  <!-- Whiskers -->
  <line x1="8" y1="8" x2="4" y2="7" stroke="#000" stroke-width="0.5"/>
  <line x1="8" y1="10" x2="4" y2="10" stroke="#000" stroke-width="0.5"/>
  <line x1="24" y1="8" x2="28" y2="7" stroke="#000" stroke-width="0.5"/>
  <line x1="24" y1="10" x2="28" y2="10" stroke="#000" stroke-width="0.5"/>
  
  <!-- Tail -->
  <path d="M 6 20 Q 2 24 4 28" stroke="#8B4513" stroke-width="2" fill="none"/>
  
  <!-- Feet -->
  <ellipse cx="11" cy="25" rx="2" ry="1.5" fill="#654321"/>
  <ellipse cx="21" cy="25" rx="2" ry="1.5" fill="#654321"/>
</svg>